HIERARCHY
ROOT hip
{
  OFFSET 0 0 0
  CHANNELS 6 Xposition Yposition Zposition Zrotation Yrotation Xrotation
  JOINT abdomen
  {
    OFFSET 0 20.6881 -0.73152
    CHANNELS 3 Zrotation Xrotation Yrotation
    JOINT chest
    {
      OFFSET 0 11.7043 -0.48768
      CHANNELS 3 Zrotation Xrotation Yrotation
      JOINT neck
      {
        OFFSET 0 22.1894 -2.19456
        CHANNELS 3 Zrotation Xrotation Yrotation
        JOINT head
        {
          OFFSET -0.24384 7.07133 1.2192
          CHANNELS 3 Zrotation Xrotation Yrotation
          JOINT leftEye
          {
            OFFSET 4.14528 8.04674 8.04672
            CHANNELS 3 Zrotation Xrotation Yrotation
            End Site
            {
              OFFSET 1 0 0
            }
          }
          JOINT rightEye
          {
            OFFSET -3.6576 8.04674 8.04672
            CHANNELS 3 Zrotation Xrotation Yrotation
            End Site
            {
              OFFSET 1 0 0
            }
          }
        }
      }
      JOINT rCollar
      {
        OFFSET -2.68224 19.2634 -4.8768
        CHANNELS 3 Zrotation Xrotation Yrotation
        JOINT rShldr
        {
          OFFSET -8.77824 -1.95073 1.46304
          CHANNELS 3 Zrotation Xrotation Yrotation
          JOINT rForeArm
          {
            OFFSET -28.1742 -1.7115 0.48768
            CHANNELS 3 Zrotation Xrotation Yrotation
            JOINT rHand
            {
              OFFSET -22.5879 0.773209 7.07136
              CHANNELS 3 Zrotation Xrotation Yrotation
              JOINT rThumb1
              {
                OFFSET -1.2192 -0.487915 3.41376
                CHANNELS 3 Zrotation Xrotation Yrotation
                JOINT rThumb2
                {
                  OFFSET -3.37035 -0.52449 3.41376
                  CHANNELS 3 Zrotation Xrotation Yrotation
                  End Site
                  {
                    OFFSET -1.78271 -1.18214 1.43049
                  }
                }
              }
              JOINT rIndex1
              {
                OFFSET -7.75947 0.938293 5.60832
                CHANNELS 3 Zrotation Xrotation Yrotation
                JOINT rIndex2
                {
                  OFFSET -2.54057 -0.884171 1.56538
                  CHANNELS 3 Zrotation Xrotation Yrotation
                  End Site
                  {
                    OFFSET -1.62519 -0.234802 1.16502
                  }
                }
              }
              JOINT rMid1
              {
                OFFSET -8.24714 1.18213 3.41376
                CHANNELS 3 Zrotation Xrotation Yrotation
                JOINT rMid2
                {
                  OFFSET -3.10165 -0.590103 1.0647
                  CHANNELS 3 Zrotation Xrotation Yrotation
                  End Site
                  {
                    OFFSET -2.48547 -0.328903 0.83742
                  }
                }
              }
              JOINT rRing1
              {
                OFFSET -8.82822 0.546677 1.51678
                CHANNELS 3 Zrotation Xrotation Yrotation
                JOINT rRing2
                {
                  OFFSET -2.60934 -0.819778 -0.0198488
                  CHANNELS 3 Zrotation Xrotation Yrotation
                  End Site
                  {
                    OFFSET -2.33842 -0.294052 0.168128
                  }
                }
              }
              JOINT rPinky1
              {
                OFFSET -8.27202 -0.0477905 -0.4584
                CHANNELS 3 Zrotation Xrotation Yrotation
                JOINT rPinky2
                {
                  OFFSET -1.82734 -0.647385 -0.700984
                  CHANNELS 3 Zrotation Xrotation Yrotation
                  End Site
                  {
                    OFFSET -1.69225 -0.51767 -0.607171
                  }
                }
              }
            }
          }
        }
      }
      JOINT lCollar
      {
        OFFSET 2.68224 19.2634 -4.8768
        CHANNELS 3 Zrotation Xrotation Yrotation
        JOINT lShldr
        {
          OFFSET 8.77824 -1.95073 1.46304
          CHANNELS 3 Zrotation Xrotation Yrotation
          JOINT lForeArm
          {
            OFFSET 28.1742 -1.7115 0.48768
            CHANNELS 3 Zrotation Xrotation Yrotation
            JOINT lHand
            {
              OFFSET 22.5879 0.773209 7.07136
              CHANNELS 3 Zrotation Xrotation Yrotation
              JOINT lThumb1
              {
                OFFSET 1.2192 -0.487915 3.41376
                CHANNELS 3 Zrotation Xrotation Yrotation
                JOINT lThumb2
                {
                  OFFSET 3.37035 -0.52449 3.41376
                  CHANNELS 3 Zrotation Xrotation Yrotation
                  End Site
                  {
                    OFFSET 1.78271 -1.18214 1.43049
                  }
                }
              }
              JOINT lIndex1
              {
                OFFSET 7.75947 0.938293 5.60832
                CHANNELS 3 Zrotation Xrotation Yrotation
                JOINT lIndex2
                {
                  OFFSET 2.54057 -0.884171 1.56538
                  CHANNELS 3 Zrotation Xrotation Yrotation
                  End Site
                  {
                    OFFSET 1.62519 -0.234802 1.16502
                  }
                }
              }
              JOINT lMid1
              {
                OFFSET 8.24714 1.18213 3.41376
                CHANNELS 3 Zrotation Xrotation Yrotation
                JOINT lMid2
                {
                  OFFSET 3.10165 -0.590103 1.0647
                  CHANNELS 3 Zrotation Xrotation Yrotation
                  End Site
                  {
                    OFFSET 2.48547 -0.328903 0.83742
                  }
                }
              }
              JOINT lRing1
              {
                OFFSET 8.82822 0.546677 1.51678
                CHANNELS 3 Zrotation Xrotation Yrotation
                JOINT lRing2
                {
                  OFFSET 2.60934 -0.819778 -0.0198488
                  CHANNELS 3 Zrotation Xrotation Yrotation
                  End Site
                  {
                    OFFSET 2.33842 -0.294052 0.168128
                  }
                }
              }
              JOINT lPinky1
              {
                OFFSET 8.27202 -0.0477905 -0.4584
                CHANNELS 3 Zrotation Xrotation Yrotation
                JOINT lPinky2
                {
                  OFFSET 1.82734 -0.647385 -0.700984
                  CHANNELS 3 Zrotation Xrotation Yrotation
                  End Site
                  {
                    OFFSET 1.69225 -0.51767 -0.607171
                  }
                }
              }
            }
          }
        }
      }
    }
  }
  JOINT rButtock
  {
    OFFSET -8.77824 4.35084 1.2192
    CHANNELS 3 Zrotation Xrotation Yrotation
    JOINT rThigh
    {
      OFFSET 0 -1.70687 -2.19456
      CHANNELS 3 Zrotation Xrotation Yrotation
      JOINT rShin
      {
        OFFSET 0 -36.8199 0.73152
        CHANNELS 3 Zrotation Xrotation Yrotation
        JOINT rFoot
        {
          OFFSET 0.73152 -45.1104 -5.12064
          CHANNELS 3 Zrotation Xrotation Yrotation
          End Site
          {
            OFFSET -1.1221 -3.69964 12.103
          }
        }
      }
    }
  }
  JOINT lButtock
  {
    OFFSET 8.77824 4.35084 1.2192
    CHANNELS 3 Zrotation Xrotation Yrotation
    JOINT lThigh
    {
      OFFSET 0 -1.70687 -2.19456
      CHANNELS 3 Zrotation Xrotation Yrotation
      JOINT lShin
      {
        OFFSET 0 -36.8199 0.73152
        CHANNELS 3 Zrotation Xrotation Yrotation
        JOINT lFoot
        {
          OFFSET -0.73152 -45.1104 -5.12064
          CHANNELS 3 Zrotation Xrotation Yrotation
          End Site
          {
            OFFSET 1.1221 -3.69964 12.103
          }
        }
      }
    }
  }
}
MOTION
Frames:	7
Frame Time:	0.00833333
16.6612 78.8869 99.0345 -186.651 -62.6364 189.511 -25.4959 14.9685 5.98409 -1.34127 2.59504 0.27594 -0.353695 17.5941 9.10122 22.5171 -35.8079 25.3454 -0.0 0.0 0.0 -0.0 0.0 0.0 -3.43178e-13 2.70023e-12 1.07348e-12 132.693 53.6839 -46.6211 -24.1017 -19.2882 49.9326 -0.64467 22.1853 3.28566 4.89339e-09 -6.86384e-11 4.37867e-09 8.5229e-09 -1.42497e-10 7.47368e-09 4.89339e-09 -6.86375e-11 4.37866e-09 7.73091 5.47488 0.417314 4.89339e-09 -6.86371e-11 4.37866e-09 2.90554 0.965183 0.102902 4.89339e-09 -6.86372e-11 4.37866e-09 10.2786 0.731801 0.0259123 4.89338e-09 -6.86368e-11 4.37867e-09 2.22167 -0.733487 -0.20892 -3.43175e-13 2.70018e-12 1.07325e-12 -160.705 70.5362 86.5614 24.3835 -19.8314 -50.8464 0.357575 -16.7653 2.42654 1.54035e-10 9.01112e-09 -7.16853e-09 3.67177e-10 1.58062e-08 -1.23976e-08 1.54039e-10 9.01113e-09 -7.16852e-09 -7.73091 5.47488 -0.417314 1.54037e-10 9.01112e-09 -7.16853e-09 -2.90554 0.965183 -0.102902 1.54032e-10 9.01112e-09 -7.16854e-09 -10.2786 0.731801 -0.0259123 1.54041e-10 9.01112e-09 -7.16854e-09 -2.22167 -0.733487 0.20892 -2.03217e-16 0.0 -3.88251e-19 -11.1341 -67.6673 1.47942 -0.574382 48.6853 0.936193 6.98148 -19.523 16.2096 2.03217e-16 0.0 3.88251e-19 -5.95759 -23.0725 20.6654 0.221151 44.6539 -1.84671 7.11993 -23.5124 13.6857
16.6426 78.7847 98.7378 -185.822 -63.5565 189.407 -24.6994 14.5991 5.70784 -1.55708 2.64793 0.294482 -0.212129 17.5492 9.22219 21.9342 -36.026 25.484 -0.0 0.0 0.0 -0.0 0.0 0.0 -1.45461e-13 1.29438e-12 5.36868e-13 132.673 53.5262 -46.5341 -24.1043 -19.2932 49.941 -0.627806 21.9122 3.24088 2.81441e-09 2.25819e-10 3.87613e-09 4.92815e-09 3.7083e-10 6.63856e-09 2.81442e-09 2.25819e-10 3.87612e-09 7.73091 5.47488 0.417314 2.81441e-09 2.25817e-10 3.87613e-09 2.90554 0.965183 0.102902 2.81442e-09 2.25817e-10 3.87613e-09 10.2786 0.731801 0.0259123 2.8144e-09 2.25818e-10 3.87614e-09 2.22167 -0.733487 -0.20892 -1.4551e-13 1.29434e-12 5.3665e-13 -161.181 70.5348 87.133 24.3834 -19.831 -50.8457 0.339922 -16.3572 2.3641 -1.97863e-09 2.65377e-09 -4.52794e-09 -3.35022e-09 4.75937e-09 -7.85592e-09 -1.97862e-09 2.65379e-09 -4.52792e-09 -7.73091 5.47488 -0.417314 -1.97863e-09 2.65377e-09 -4.52793e-09 -2.90554 0.965183 -0.102902 -1.97863e-09 2.65377e-09 -4.52794e-09 -10.2786 0.731801 -0.0259123 -1.97862e-09 2.65377e-09 -4.52795e-09 -2.22167 -0.733487 0.20892 -2.03217e-16 0.0 -3.88251e-19 -9.29726 -66.4423 3.50697 -0.639645 50.4885 0.983733 7.56719 -17.5728 18.5338 2.03217e-16 0.0 3.88251e-19 -5.39963 -23.8034 20.1301 0.234558 45.2089 -1.84397 6.8492 -23.7953 13.0256
16.6233 78.6563 98.441 -185.016 -64.5331 189.301 -23.9472 14.2496 5.44924 -1.75561 2.7114 0.308234 -0.0730185 17.5076 9.34034 21.3074 -36.2297 25.597 -0.0 0.0 0.0 -0.0 0.0 0.0 6.21989e-14 -2.16167e-13 -4.38795e-14 132.613 53.3794 -46.4139 -24.1052 -19.2949 49.9438 -0.6159 21.7195 3.20932 5.19734e-10 5.33412e-10 3.17689e-09 9.57629e-10 9.08111e-10 5.46791e-09 5.19746e-10 5.3341e-10 3.17688e-09 7.73091 5.47488 0.417314 5.19737e-10 5.33407e-10 3.17689e-09 2.90554 0.965183 0.102902 5.19746e-10 5.33407e-10 3.17688e-09 10.2786 0.731801 0.0259123 5.1973e-10 5.33408e-10 3.1769e-09 2.22167 -0.733487 -0.20892 6.20873e-14 -2.16197e-13 -4.4086e-14 -161.666 70.5535 87.6987 24.3822 -19.8286 -50.8417 0.321182 -15.9126 2.29636 -4.07885e-09 -4.09439e-09 -1.579e-09 -7.01586e-09 -6.97366e-09 -2.77989e-09 -4.07885e-09 -4.09437e-09 -1.57899e-09 -7.73091 5.47488 -0.417314 -4.07885e-09 -4.09439e-09 -1.57899e-09 -2.90554 0.965183 -0.102902 -4.07886e-09 -4.09439e-09 -1.579e-09 -10.2786 0.731801 -0.0259123 -4.07885e-09 -4.09439e-09 -1.57901e-09 -2.22167 -0.733487 0.20892 -2.03217e-16 0.0 -3.88251e-19 -7.62818 -65.1889 5.3956 -0.705375 52.1839 1.03541 7.86496 -15.3772 20.692 2.03217e-16 0.0 3.88251e-19 -4.92716 -24.5278 19.5846 0.24895 45.7512 -1.83676 6.57591 -24.0887 12.3626
16.6054 78.5057 98.1515 -184.281 -65.5851 189.252 -23.1519 13.9045 5.18338 -1.9535 2.78623 0.31957 0.0400537 17.4782 9.43952 20.6721 -36.418 25.6617 -0.0 0.0 0.0 -0.0 0.0 0.0 1.98841e-13 -1.24756e-12 -4.26045e-13 132.505 53.2204 -46.2516 -24.1041 -19.2927 49.9402 -0.609447 21.6134 3.192 -1.11555e-09 7.4196e-10 2.52504e-09 -1.87524e-09 1.27358e-09 4.36916e-09 -1.11553e-09 7.41957e-10 2.52502e-09 7.73091 5.47488 0.417314 -1.11554e-09 7.41954e-10 2.52504e-09 2.90554 0.965183 0.102902 -1.11553e-09 7.41953e-10 2.52503e-09 10.2786 0.731801 0.0259123 -1.11555e-09 7.41955e-10 2.52505e-09 2.22167 -0.733487 -0.20892 1.98692e-13 -1.24758e-12 -4.26244e-13 -162.16 70.5977 88.2505 24.3779 -19.8202 -50.8277 0.301053 -15.4263 2.22253 -5.32189e-09 -8.57744e-09 5.13691e-10 -9.19017e-09 -1.47746e-08 8.25755e-10 -5.32189e-09 -8.57741e-09 5.13698e-10 -7.73091 5.47488 -0.417314 -5.32189e-09 -8.57744e-09 5.13691e-10 -2.90554 0.965183 -0.102902 -5.32189e-09 -8.57744e-09 5.13687e-10 -10.2786 0.731801 -0.0259123 -5.32189e-09 -8.57744e-09 5.13679e-10 -2.22167 -0.733487 0.20892 -2.03217e-16 0.0 -3.88251e-19 -6.05072 -63.8468 7.187 -0.761644 53.5793 1.08822 7.79321 -12.9893 22.5065 2.03217e-16 0.0 3.88251e-19 -4.47583 -25.2641 19.0469 0.264391 46.2726 -1.82622 6.29392 -24.3797 11.6911
16.5854 78.3404 97.8736 -183.613 -66.7332 189.256 -22.3482 13.5587 4.91164 -2.14202 2.87593 0.328234 0.112423 17.4564 9.52154 20.0264 -36.5839 25.6791 -0.0 0.0 0.0 -0.0 0.0 0.0 2.40647e-13 -1.72217e-12 -5.43318e-13 132.343 53.0404 -46.0417 -24.1017 -19.2883 49.9327 -0.608842 21.6009 3.19003 -1.94927e-09 8.38419e-10 1.84744e-09 -3.32711e-09 1.44556e-09 3.21441e-09 -1.94926e-09 8.38415e-10 1.84743e-09 7.73091 5.47488 0.417314 -1.94926e-09 8.38412e-10 1.84744e-09 2.90554 0.965183 0.102902 -1.94925e-09 8.38412e-10 1.84744e-09 10.2786 0.731801 0.0259123 -1.94927e-09 8.38414e-10 1.84745e-09 2.22167 -0.733487 -0.20892 2.40498e-13 -1.72218e-12 -5.43509e-13 -162.675 70.6715 88.801 24.3717 -19.8081 -50.8075 0.280235 -14.9011 2.14322 -5.40334e-09 -1.01953e-08 1.53923e-09 -9.3444e-09 -1.76023e-08 2.60064e-09 -5.40334e-09 -1.01953e-08 1.53924e-09 -7.73091 5.47488 -0.417314 -5.40333e-09 -1.01953e-08 1.53923e-09 -2.90554 0.965183 -0.102902 -5.40334e-09 -1.01953e-08 1.53923e-09 -10.2786 0.731801 -0.0259123 -5.40334e-09 -1.01953e-08 1.53922e-09 -2.22167 -0.733487 0.20892 -2.03217e-16 0.0 -3.88251e-19 -4.58626 -62.4137 8.89023 -0.806111 54.6853 1.14776 7.23459 -10.0348 24.0362 2.03217e-16 0.0 3.88251e-19 -4.07667 -26.0175 18.5382 0.280486 46.773 -1.81255 6.01263 -24.6768 11.0271
16.5655 78.1683 97.6166 -183.023 -67.9896 189.335 -21.5632 13.2207 4.64449 -2.31667 2.97897 0.333254 0.159373 17.44 9.59301 19.3542 -36.7306 25.6583 -0.0 0.0 0.0 -0.0 0.0 0.0 2.31538e-13 -1.92535e-12 -5.25674e-13 132.132 52.8518 -45.7911 -24.098 -19.2812 49.9209 -0.613524 21.677 3.20246 -2.41775e-09 8.76994e-10 1.06e-09 -4.15174e-09 1.51827e-09 1.8652e-09 -2.41774e-09 8.76991e-10 1.05998e-09 7.73091 5.47488 0.417314 -2.41774e-09 8.76989e-10 1.06e-09 2.90554 0.965183 0.102902 -2.41773e-09 8.76988e-10 1.05999e-09 10.2786 0.731801 0.0259123 -2.41775e-09 8.76989e-10 1.06001e-09 2.22167 -0.733487 -0.20892 2.31407e-13 -1.92536e-12 -5.25857e-13 -163.212 70.7711 89.354 24.3641 -19.7932 -50.7829 0.259166 -14.3385 2.05875 -4.79122e-09 -1.03284e-08 2.08552e-09 -8.2946e-09 -1.78564e-08 3.55587e-09 -4.79122e-09 -1.03283e-08 2.08552e-09 -7.73091 5.47488 -0.417314 -4.79122e-09 -1.03284e-08 2.08552e-09 -2.90554 0.965183 -0.102902 -4.79123e-09 -1.03284e-08 2.08552e-09 -10.2786 0.731801 -0.0259123 -4.79122e-09 -1.03284e-08 2.08551e-09 -2.22167 -0.733487 0.20892 -2.03217e-16 0.0 -3.88251e-19 -3.25118 -60.9203 10.4985 -0.842962 55.5839 1.21236 6.2552 -6.64731 25.403 2.03217e-16 0.0 3.88251e-19 -3.7476 -26.7778 18.0433 0.297101 47.256 -1.79498 5.7311 -24.9829 10.3674
16.5434 77.9991 97.3683 -182.39 -69.3706 189.363 -20.6982 12.8958 4.37078 -2.50045 3.08865 0.335941 0.20214 17.4405 9.64495 18.67 -36.8718 25.5885 -0.0 0.0 0.0 -0.0 0.0 0.0 1.92165e-13 -1.81777e-12 -4.24832e-13 131.888 52.6644 -45.5098 -24.0912 -19.2685 49.8994 -0.622735 21.8297 3.22737 -2.51362e-09 8.46383e-10 3.90316e-10 -4.33132e-09 1.46984e-09 7.13168e-10 -2.51361e-09 8.46379e-10 3.90308e-10 7.73091 5.47488 0.417314 -2.51361e-09 8.46379e-10 3.90319e-10 2.90554 0.965183 0.102902 -2.51361e-09 8.46378e-10 3.90315e-10 10.2786 0.731801 0.0259123 -2.51362e-09 8.46379e-10 3.90326e-10 2.22167 -0.733487 -0.20892 1.92055e-13 -1.81777e-12 -4.25015e-13 -163.749 70.8907 89.8869 24.3521 -19.7698 -50.7438 0.237302 -13.7308 1.96799 -3.81942e-09 -9.29154e-09 2.18614e-09 -6.61844e-09 -1.60797e-08 3.74395e-09 -3.81943e-09 -9.29155e-09 2.18615e-09 -7.73091 5.47488 -0.417314 -3.81942e-09 -9.29154e-09 2.18615e-09 -2.90554 0.965183 -0.102902 -3.81943e-09 -9.29155e-09 2.18615e-09 -10.2786 0.731801 -0.0259123 -3.81942e-09 -9.29154e-09 2.18613e-09 -2.22167 -0.733487 0.20892 -2.03217e-16 0.0 -3.88251e-19 -1.98169 -59.3547 12.0125 -0.868808 56.1895 1.26516 5.15934 -3.59505 26.4905 2.03217e-16 0.0 3.88251e-19 -3.40582 -27.5407 17.5251 0.314748 47.7193 -1.77318 5.42835 -25.2762 9.67797
